<svg width="180" height="180" viewBox="0 0 180 180" fill="none" xmlns="http://www.w3.org/2000/svg">
<path d="M12 164.5V15L38 30V179.5L12 164.5Z" fill="#DD9C80"/>
<path d="M38 0L12 15L38 30L64 15L38 0Z" fill="#F0CFBF"/>
<path d="M167.5 75.5L64 15L38 30L142.5 89.5L167.5 75.5Z" fill="#8DDFD4"/>
<path d="M142.5 119.5L38 179.5V59.5L65 75V135L142.5 89.5V119.5Z" fill="#452E33"/>
<path d="M142.5 89.5L117 75L65 104.5V135L142.5 89.5Z" fill="#F0CFBF"/>
<path d="M167.5 105.5V75.5L142.5 89.5V119.5L167.5 105.5Z" fill="#6AA8A0"/>
<path d="M38 30L117 75L90.5 90L38 59.5V30Z" fill="#6AA8A0"/>
</svg>
